<?xml version="1.0" standalone="no"?>
<!DOCTYPE svg PUBLIC "-//W3C//DTD SVG 20010904//EN"
 "http://www.w3.org/TR/2001/REC-SVG-20010904/DTD/svg10.dtd">
<svg version="1.0" xmlns="http://www.w3.org/2000/svg"
 width="500.000000pt" height="500.000000pt" viewBox="0 0 500.000000 500.000000"
 preserveAspectRatio="xMidYMid meet">

<g transform="translate(0.000000,500.000000) scale(0.100000,-0.100000)"
fill="#000000" stroke="none">
<path d="M0 2500 l0 -2500 2500 0 2500 0 0 2500 0 2500 -2500 0 -2500 0 0
-2500z m2551 2102 c11 -50 -10 -135 -48 -194 -18 -28 -29 -62 -33 -98 l-5 -55
-18 33 c-29 54 -25 176 8 247 27 56 74 120 82 111 3 -2 9 -22 14 -44z m35
-359 c6 -23 -22 -93 -37 -93 -10 0 -12 73 -2 120 6 31 7 32 20 14 8 -10 16
-29 19 -41z m-19 -276 c25 -48 27 -60 25 -171 -1 -132 5 -156 61 -229 46 -61
53 -95 31 -157 -10 -27 -16 -51 -13 -52 2 -2 31 -16 64 -33 127 -62 230 -196
270 -350 58 -226 -63 -479 -280 -586 -97 -48 -175 -63 -275 -55 -213 17 -396
162 -461 365 -29 90 -29 231 0 321 25 80 87 176 148 230 52 46 134 95 176 105
15 4 27 11 27 16 0 5 -12 39 -26 76 -39 103 -24 178 62 315 16 24 28 62 31 94
6 53 6 54 25 37 11 -10 27 -31 36 -48 l15 -30 18 40 c11 25 18 66 18 108 1 79
9 79 48 4z m-304 -427 c-9 -33 -23 -22 -23 18 1 33 2 35 14 19 8 -10 12 -27 9
-37z"/>
</g>
</svg>
